<svg height="25px" xmlns="http://www.w3.org/2000/svg" shape-rendering="geometricPrecision" text-rendering="geometricPrecision" image-rendering="optimizeQuality" fill-rule="evenodd" clip-rule="evenodd" viewBox="0 0 492 512.324">
  <circle fill="#39BF46" cx="231.181" cy="231.181" r="231.181" />
  <path fill="#44944D" d="M437.688 127.17C471.601 167.894 492 220.259 492 277.396c0 129.746-105.182 234.928-234.928 234.928-103.431 0-191.249-66.842-222.619-159.683 40.74 65.85 113.605 109.721 196.728 109.721 127.682 0 231.181-103.499 231.181-231.181 0-37.412-8.898-72.749-24.674-104.011z" />
  <path fill="#fff" fill-rule="nonzero" d="M302.226 254.964c13.306-.108 24.006-10.987 23.89-24.284-.108-13.306-10.987-24.007-24.293-23.899l-81.386.474 29.433-29.907c9.321-9.483 9.196-24.741-.287-34.071-9.482-9.331-24.74-9.205-34.071.286l-70.264 71.393c-9.24 9.393-9.205 24.436 0 33.793l68.922 70.041c9.329 9.492 24.588 9.617 34.07.286 9.483-9.33 9.608-24.588.278-34.07l-29.066-29.55 82.774-.492z" />
</svg>